<svg xmlns="http://www.w3.org/2000/svg" width="147.316" height="81.752" viewBox="0 0 147.316 81.752">
  <g id="Group_98" data-name="Group 98" transform="translate(-947.834 -173.331)">
    <path id="Path_28" data-name="Path 28" d="M972.656,232.645a104.142,104.142,0,0,0-1.457,18.33s64.717,7.537,86.464,2.19c3.686-.906,2.129-20.52,2.129-20.52s28.259,8.157,34.156-8.837-11.058-29.682-26.047-27.643c0,0-2.318-18.925-26.346-18.752s-20.9,14.673-20.9,14.673,0-21.978-27.924-18.353c-20.709,2.688-19.057,16.087-18.456,22.2,0,0-24.52-4.985-26.4,17.447C947.032,223.418,959.485,236.271,972.656,232.645Z" transform="translate(0 0)" fill="#ff9002"/>
    <g id="Group_92" data-name="Group 92" transform="translate(974.644 202.408)">
      <path id="Path_29" data-name="Path 29" d="M1045.9,297.771a4.45,4.45,0,0,1-2.481-.636,4.72,4.72,0,0,1-1.542-1.643,6.958,6.958,0,0,1-.788-2.246,14.294,14.294,0,0,1-.217-2.481c0-.179,0-.4.016-.67a3.97,3.97,0,0,1,.117-.8,2.026,2.026,0,0,1,.3-.687.655.655,0,0,1,.569-.285,2.089,2.089,0,0,1,1.14.369,2.872,2.872,0,0,1,.871.838v1.291q0,.955.1,1.994a12.712,12.712,0,0,0,.3,1.844q.2.8.6.8a1.651,1.651,0,0,0,1.224-.536,4.628,4.628,0,0,0,.888-1.374,10.372,10.372,0,0,0,.6-1.86q.235-1.022.369-2.028t.184-1.877q.051-.87.051-1.374V284.9a8.244,8.244,0,0,1-1.643,1.274,3.805,3.805,0,0,1-1.978.536,4.9,4.9,0,0,1-2.865-.8,5.845,5.845,0,0,1-1.828-2.045,9.382,9.382,0,0,1-.954-2.765,15.94,15.94,0,0,1-.285-2.933q0-.268.033-.754a5.9,5.9,0,0,1,.151-.972,2.863,2.863,0,0,1,.335-.838.662.662,0,0,1,.587-.352,2.78,2.78,0,0,1,.688.1,3.157,3.157,0,0,1,.72.285,1.955,1.955,0,0,1,.57.469,1,1,0,0,1,.235.654.6.6,0,0,1-.1.3,3.692,3.692,0,0,0-.084.6q-.016.3-.016.6a14.21,14.21,0,0,0,.1,1.508,17.917,17.917,0,0,0,.3,1.827,10.539,10.539,0,0,0,.536,1.742,3.76,3.76,0,0,0,.771,1.257,3.637,3.637,0,0,0,1.676-1.089,11.025,11.025,0,0,0,1.458-1.961,21.456,21.456,0,0,0,1.157-2.246,16.5,16.5,0,0,0,.737-1.944,2.126,2.126,0,0,0,.134-.4,3.327,3.327,0,0,1,.184-.536,3.1,3.1,0,0,1,.251-.47.394.394,0,0,1,.336-.2,1.936,1.936,0,0,1,.737.168,3.382,3.382,0,0,1,.754.435,2.744,2.744,0,0,1,.587.6,1.211,1.211,0,0,1,.234.7q0,1.709-.134,3.368t-.167,3.369v2.4q0,1.392-.118,2.883a23.292,23.292,0,0,1-.419,2.933,10.036,10.036,0,0,1-.9,2.6,5.187,5.187,0,0,1-1.592,1.86A4.2,4.2,0,0,1,1045.9,297.771Z" transform="translate(-1038.663 -274.24)" fill="#fff"/>
      <path id="Path_30" data-name="Path 30" d="M1100.655,301.119a1.246,1.246,0,0,1-1.039-.469,3.176,3.176,0,0,1-.553-1.123,5.9,5.9,0,0,1-.218-1.341q-.035-.687-.034-1.157v-.4l.034-.838v-.4q-.37.738-.821,1.542a8.759,8.759,0,0,1-1.039,1.475,4.974,4.974,0,0,1-1.34,1.089,3.49,3.49,0,0,1-1.726.419,4.149,4.149,0,0,1-3.017-1.073,7.043,7.043,0,0,1-1.692-2.648,13.043,13.043,0,0,1-.754-3.352q-.168-1.777-.167-3.184,0-1.073.1-2.3t.268-2.464q.168-1.239.352-2.447t.386-2.246q.168-.066.4-.184a.929.929,0,0,1,.4-.117,3.306,3.306,0,0,1,1.156.218,2.14,2.14,0,0,1,.956.687,1.1,1.1,0,0,1,.066.251,1.774,1.774,0,0,1,.034.251,20.991,20.991,0,0,1-.117,2.145q-.117,1.14-.268,2.33t-.284,2.329a18.238,18.238,0,0,0-.135,2.145,22.918,22.918,0,0,0,.336,3.871,8.6,8.6,0,0,0,1.475,3.57,5.018,5.018,0,0,0,1.709-2.079,27.269,27.269,0,0,0,1.441-3.436q.671-1.927,1.24-4.022t1.106-3.838a22.384,22.384,0,0,1,1.072-2.882q.536-1.14,1.073-1.14a2.3,2.3,0,0,1,.755.134,2.964,2.964,0,0,1,.72.369,1.877,1.877,0,0,1,.536.57,1.411,1.411,0,0,1,.2.737q0,.47-.05,1.09t-.117,1.274q-.068.654-.168,1.274c-.066.414-.123.777-.167,1.089a32.672,32.672,0,0,0-.352,4.022q-.05,2.011-.05,4.022a22.348,22.348,0,0,0,.117,2.313,22.527,22.527,0,0,1,.118,2.313q0,1.072-.436,1.341A3.068,3.068,0,0,1,1100.655,301.119Z" transform="translate(-1073.638 -277.522)" fill="#fff"/>
      <path id="Path_31" data-name="Path 31" d="M1147.518,294.766a1.528,1.528,0,0,1-.687-.553,2.549,2.549,0,0,1-.217-.855,22.917,22.917,0,0,1-.252-2.648q-.051-1.34-.05-2.681,0-2.112.117-4.139a34.978,34.978,0,0,1,.487-4.107c.022-.134.071-.391.15-.771s.162-.776.252-1.19.178-.793.269-1.14a1.724,1.724,0,0,1,.234-.62.623.623,0,0,1,.318-.369,1.153,1.153,0,0,1,.486-.1,2.861,2.861,0,0,1,.654.084,2.571,2.571,0,0,1,.653.251,1.675,1.675,0,0,1,.5.419.958.958,0,0,1,.2.62,12.03,12.03,0,0,1-.066,1.224,6.182,6.182,0,0,1-.235,1.19,1.453,1.453,0,0,0-.2.6q-.1.5-.2,1.106c-.066.4-.117.788-.151,1.157s-.05.62-.05.754a14.29,14.29,0,0,0,.62-1.442q.285-.77.6-1.525t.7-1.475a6.724,6.724,0,0,1,.888-1.291,1.483,1.483,0,0,1,1.139-.469,2.73,2.73,0,0,1,1.659.419,2.411,2.411,0,0,1,.805,1.072,5.681,5.681,0,0,1,.334,1.441,10.555,10.555,0,0,0,.285,1.559q.234-.5.653-1.391t.956-1.927q.536-1.039,1.156-2.129a22.428,22.428,0,0,1,1.257-1.978,8.472,8.472,0,0,1,1.291-1.458,1.929,1.929,0,0,1,1.223-.57,3.487,3.487,0,0,1,.922.134,3.358,3.358,0,0,1,.888.385,2.107,2.107,0,0,1,.654.637,1.593,1.593,0,0,1,.251.888,24.374,24.374,0,0,1-.134,2.547q-.135,1.275-.336,2.531t-.4,2.514q-.2,1.257-.336,2.531a20.156,20.156,0,0,0-.1,3.084q.067,1.575.067,3.084c0,.09.005.308.017.654s.016.715.016,1.106-.006.749-.016,1.073a1.231,1.231,0,0,1-.084.553,1.3,1.3,0,0,1-.687.352,4.039,4.039,0,0,1-.788.084,2.549,2.549,0,0,1-.837-.151.952.952,0,0,1-.6-.586,6.18,6.18,0,0,1-.117-1.107q-.051-.9-.084-1.977t-.05-2.045q-.018-.971-.017-1.274,0-1.172.067-2.514t.185-2.715q.118-1.374.318-2.7a23.453,23.453,0,0,1,.5-2.464,27.976,27.976,0,0,0-2.9,5.581q-1.089,2.866-2.028,5.983-.167.637-.369,1.19a1.178,1.178,0,0,1-.938.721c-.112.023-.213.04-.3.05a2.367,2.367,0,0,1-.3.017,3.128,3.128,0,0,1-.788-.1,1.92,1.92,0,0,1-.72-.369,1.463,1.463,0,0,1-.436-.889,8.9,8.9,0,0,1-.168-1.425q-.034-.77-.017-1.475t.017-1.039l-.1-3.117a43.681,43.681,0,0,0-1.844,5.145q-.738,2.565-1.274,5.313-.067.3-.117.7a5.587,5.587,0,0,1-.151.771,2.505,2.505,0,0,1-.3.687,1.119,1.119,0,0,1-.537.452,1.26,1.26,0,0,1-.5.1Z" transform="translate(-1114.536 -271.839)" fill="#fff"/>
      <path id="Path_32" data-name="Path 32" d="M1220.875,294.766a1.528,1.528,0,0,1-.687-.553,2.561,2.561,0,0,1-.217-.855,22.917,22.917,0,0,1-.252-2.648q-.051-1.34-.05-2.681,0-2.112.118-4.139a34.977,34.977,0,0,1,.486-4.107q.033-.2.15-.771t.252-1.19q.134-.62.268-1.14a1.719,1.719,0,0,1,.234-.62.623.623,0,0,1,.318-.369,1.154,1.154,0,0,1,.486-.1,2.861,2.861,0,0,1,.654.084,2.576,2.576,0,0,1,.653.251,1.677,1.677,0,0,1,.5.419.957.957,0,0,1,.2.62,12.1,12.1,0,0,1-.066,1.224,6.181,6.181,0,0,1-.235,1.19,1.461,1.461,0,0,0-.2.6q-.1.5-.2,1.106t-.151,1.157c-.033.369-.05.62-.05.754a14.234,14.234,0,0,0,.62-1.442q.284-.77.6-1.525t.7-1.475a6.724,6.724,0,0,1,.888-1.291,1.483,1.483,0,0,1,1.139-.469,2.73,2.73,0,0,1,1.659.419,2.406,2.406,0,0,1,.8,1.072,5.681,5.681,0,0,1,.335,1.441,10.492,10.492,0,0,0,.285,1.559q.233-.5.653-1.391t.956-1.927q.536-1.039,1.156-2.129a22.484,22.484,0,0,1,1.257-1.978,8.472,8.472,0,0,1,1.291-1.458,1.929,1.929,0,0,1,1.223-.57,3.481,3.481,0,0,1,.922.134,3.358,3.358,0,0,1,.889.385,2.109,2.109,0,0,1,.653.637,1.591,1.591,0,0,1,.251.888,24.374,24.374,0,0,1-.134,2.547q-.135,1.275-.335,2.531t-.4,2.514q-.2,1.257-.335,2.531a20.094,20.094,0,0,0-.1,3.084q.067,1.575.067,3.084,0,.135.017.654t.017,1.106q0,.587-.017,1.073a1.225,1.225,0,0,1-.084.553,1.3,1.3,0,0,1-.687.352,4.039,4.039,0,0,1-.788.084,2.553,2.553,0,0,1-.838-.151.953.953,0,0,1-.6-.586,6.219,6.219,0,0,1-.117-1.107q-.05-.9-.083-1.977t-.05-2.045q-.018-.971-.017-1.274,0-1.172.067-2.514t.185-2.715q.116-1.374.318-2.7a23.267,23.267,0,0,1,.5-2.464,27.977,27.977,0,0,0-2.9,5.581q-1.09,2.866-2.028,5.983-.167.637-.369,1.19a1.177,1.177,0,0,1-.938.721c-.112.023-.213.04-.3.05a2.363,2.363,0,0,1-.3.017,3.128,3.128,0,0,1-.788-.1,1.922,1.922,0,0,1-.72-.369,1.466,1.466,0,0,1-.436-.889,8.9,8.9,0,0,1-.168-1.425q-.034-.77-.017-1.475t.017-1.039l-.1-3.117a43.725,43.725,0,0,0-1.844,5.145q-.738,2.565-1.274,5.313-.067.3-.117.7a5.446,5.446,0,0,1-.151.771,2.5,2.5,0,0,1-.3.687,1.118,1.118,0,0,1-.537.452,1.26,1.26,0,0,1-.5.1Z" transform="translate(-1166.24 -271.839)" fill="#fff"/>
      <path id="Path_33" data-name="Path 33" d="M1296.519,297.771a4.446,4.446,0,0,1-2.48-.636,4.724,4.724,0,0,1-1.543-1.643,6.96,6.96,0,0,1-.787-2.246,14.282,14.282,0,0,1-.218-2.481c0-.179,0-.4.017-.67a3.96,3.96,0,0,1,.117-.8,2.026,2.026,0,0,1,.3-.687.655.655,0,0,1,.569-.285,2.087,2.087,0,0,1,1.141.369,2.868,2.868,0,0,1,.871.838v1.291q0,.955.1,1.994a12.709,12.709,0,0,0,.3,1.844q.2.8.6.8a1.651,1.651,0,0,0,1.224-.536,4.637,4.637,0,0,0,.889-1.374,10.382,10.382,0,0,0,.6-1.86q.235-1.022.369-2.028t.184-1.877q.051-.87.051-1.374V284.9a8.235,8.235,0,0,1-1.643,1.274,3.8,3.8,0,0,1-1.978.536,4.895,4.895,0,0,1-2.865-.8,5.846,5.846,0,0,1-1.828-2.045,9.4,9.4,0,0,1-.954-2.765,15.96,15.96,0,0,1-.285-2.933q0-.268.033-.754a5.9,5.9,0,0,1,.151-.972,2.863,2.863,0,0,1,.336-.838.662.662,0,0,1,.586-.352,2.778,2.778,0,0,1,.688.1,3.151,3.151,0,0,1,.72.285,1.949,1.949,0,0,1,.57.469,1,1,0,0,1,.234.654.6.6,0,0,1-.1.3,3.7,3.7,0,0,0-.083.6q-.017.3-.016.6a14.294,14.294,0,0,0,.1,1.508,18.02,18.02,0,0,0,.3,1.827,10.6,10.6,0,0,0,.536,1.742,3.762,3.762,0,0,0,.771,1.257,3.642,3.642,0,0,0,1.676-1.089,11.091,11.091,0,0,0,1.458-1.961,21.569,21.569,0,0,0,1.156-2.246,16.451,16.451,0,0,0,.737-1.944,2.145,2.145,0,0,0,.134-.4,3.293,3.293,0,0,1,.185-.536,3.092,3.092,0,0,1,.251-.47.394.394,0,0,1,.335-.2,1.934,1.934,0,0,1,.737.168,3.383,3.383,0,0,1,.754.435,2.741,2.741,0,0,1,.587.6,1.209,1.209,0,0,1,.235.7q0,1.709-.134,3.368t-.167,3.369v2.4q0,1.392-.117,2.883a23.382,23.382,0,0,1-.419,2.933,10.041,10.041,0,0,1-.9,2.6,5.194,5.194,0,0,1-1.592,1.86A4.2,4.2,0,0,1,1296.519,297.771Z" transform="translate(-1215.304 -274.24)" fill="#fff"/>
    </g>
  </g>
</svg>
